<svg xmlns="http://www.w3.org/2000/svg" xmlns:xlink="http://www.w3.org/1999/xlink" version="1.1" x="0px" y="0px" viewBox="0 0 26 80" style="enable-background:new 0 0 26 64;" xml:space="preserve"><g><path d="M26,17V3c0-1.654-1.346-3-3-3s-3,1.346-3,3v4H6V3c0-1.654-1.346-3-3-3S0,1.346,0,3v14c0,3.894,1.745,7.532,4.712,9.993   C1.836,29.38,0,32.979,0,37v13c0,1.487,1.091,2.716,2.513,2.951L8,58.987V59h0.012l4.248,4.673C12.45,63.881,12.718,64,13,64   s0.55-0.119,0.74-0.327L17.988,59H18v-0.013l5.487-6.036C24.909,52.716,26,51.487,26,50V37c0-3.894-1.745-7.532-4.712-9.993   C24.164,24.62,26,21.021,26,17z M19.705,19H6.295C6.105,18.366,6,17.695,6,17h14C20,17.695,19.895,18.366,19.705,19z M18.736,21   c-1.267,1.811-3.364,3-5.736,3s-4.47-1.189-5.736-3H18.736z M20,15H6v-2h14V15z M20,9v2H6V9H20z M2,17V3c0-0.551,0.449-1,1-1   s1,0.449,1,1v14c0,3.338,1.831,6.252,4.538,7.805c-0.734,0.269-1.435,0.6-2.101,0.991C3.657,23.718,2,20.484,2,17z M2,37   c0-6.065,4.935-11,11-11c4.962,0,9-4.038,9-9V3c0-0.551,0.449-1,1-1s1,0.449,1,1v14c0,6.065-4.935,11-11,11c-4.962,0-9,4.038-9,9   v13c0,0.552-0.449,1-1,1s-1-0.448-1-1V37z M6.295,35h13.41C19.895,35.634,20,36.305,20,37H6C6,36.305,6.105,35.634,6.295,35z M6,39   h14v2H6V39z M6,50v-0.586l1-1l2.293,2.293c0.391,0.391,1.023,0.391,1.414,0L13,48.414l2.293,2.293C15.488,50.902,15.744,51,16,51   s0.512-0.098,0.707-0.293L19,48.414l1,1V50c0,1.003,0.499,1.886,1.256,2.431L17.103,57H8.897l-4.153-4.569   C5.501,51.886,6,51.003,6,50z M19.707,46.293c-0.391-0.391-1.023-0.391-1.414,0L16,48.586l-2.293-2.293   c-0.391-0.391-1.023-0.391-1.414,0L10,48.586l-2.293-2.293c-0.391-0.391-1.023-0.391-1.414,0L6,46.586V43h14v3.586L19.707,46.293z    M7.264,33c1.267-1.811,3.364-3,5.736-3s4.47,1.189,5.736,3H7.264z M13,61.514L10.715,59h4.57L13,61.514z M24,37v13   c0,0.552-0.449,1-1,1s-1-0.448-1-1V37c0-3.338-1.831-6.252-4.538-7.805c0.734-0.269,1.435-0.6,2.101-0.991   C22.343,30.282,24,33.516,24,37z"/></g></svg>