<svg xmlns="http://www.w3.org/2000/svg" xmlns:xlink="http://www.w3.org/1999/xlink" version="1.1" x="0px" y="0px" viewBox="0 0 48 60" style="enable-background:new 0 0 48 48;" xml:space="preserve"><g><path d="M18.9,39.6c0,3.2-1.2,6.5-3,8.4h16.2c-1.8-1.9-3-5.2-3-8.4H18.9z"/><path d="M45,0H3C1.3,0,0,1.3,0,3v31.6c0,1.7,1.3,3,3,3h42c1.7,0,3-1.3,3-3V3C48,1.3,46.7,0,45,0z M40.3,35.9c-1,0-1.8-0.8-1.8-1.8   s0.8-1.8,1.8-1.8c1,0,1.8,0.8,1.8,1.8S41.3,35.9,40.3,35.9z M44,30.6H4V4h40V30.6z"/><path d="M15.6,19.9c1.1,0,2.1-0.7,2.4-1.7h4.3c0.4,1.6,1.8,2.8,3.6,2.8c0.4,0,0.7-0.1,1.1-0.2l1.6,2.7c-0.4,0.4-0.6,1-0.6,1.7   c0,1.4,1.1,2.5,2.5,2.5s2.5-1.1,2.5-2.5c0-1.6-1.5-2.8-3.1-2.5L28.3,20c0.7-0.7,1.2-1.6,1.2-2.7c0-1.1-0.5-2-1.2-2.7l1.6-2.7   c1.6,0.3,3-0.9,3-2.5c0-1.4-1.1-2.5-2.5-2.5S27.9,8,27.9,9.4c0,0.6,0.2,1.2,0.6,1.7l-1.6,2.7c-2.2-0.7-4.2,0.7-4.6,2.7H18   c-0.3-1-1.3-1.7-2.4-1.7c-1.4,0-2.5,1.1-2.5,2.5C13,18.7,14.2,19.9,15.6,19.9z"/></g></svg>