<svg xmlns="http://www.w3.org/2000/svg" xmlns:xlink="http://www.w3.org/1999/xlink" version="1.1" x="0px" y="0px" viewBox="0 0 32 40" enable-background="new 0 0 32 32" xml:space="preserve"><g><path d="M16,26c-5.51,0-10-4.49-10-10S10.49,6,16,6s10,4.49,10,10S21.51,26,16,26z M16,8c-4.41,0-8,3.59-8,8s3.59,8,8,8s8-3.59,8-8   S20.41,8,16,8z"/><path d="M16,22c-3.31,0-6-2.69-6-6s2.69-6,6-6s6,2.69,6,6S19.31,22,16,22z M16,12c-2.21,0-4,1.79-4,4s1.79,4,4,4s4-1.79,4-4   S18.21,12,16,12z"/><circle cx="16" cy="16" r="2"/><path d="M7,17H1c-0.55,0-1-0.45-1-1s0.45-1,1-1h6c0.55,0,1,0.45,1,1S7.55,17,7,17z"/><path d="M31,17h-6c-0.55,0-1-0.45-1-1s0.45-1,1-1h6c0.55,0,1,0.45,1,1S31.55,17,31,17z"/><path d="M16,8c-0.55,0-1-0.45-1-1V1c0-0.55,0.45-1,1-1s1,0.45,1,1v6C17,7.55,16.55,8,16,8z"/><path d="M16,32c-0.55,0-1-0.45-1-1v-6c0-0.55,0.45-1,1-1s1,0.45,1,1v6C17,31.55,16.55,32,16,32z"/><g><path d="M3.36,14.02c-0.08,0-0.15-0.01-0.23-0.03c-0.54-0.13-0.87-0.66-0.75-1.2C3.58,7.67,7.67,3.58,12.8,2.38    c0.54-0.12,1.08,0.21,1.2,0.75c0.13,0.54-0.21,1.08-0.75,1.2c-4.39,1.03-7.89,4.53-8.92,8.92C4.22,13.71,3.81,14.02,3.36,14.02z"/><path d="M13.03,29.64c-0.08,0-0.15-0.01-0.23-0.03c-5.12-1.2-9.21-5.29-10.41-10.41c-0.13-0.54,0.21-1.08,0.75-1.2    c0.53-0.12,1.08,0.21,1.2,0.75c1.03,4.39,4.53,7.89,8.92,8.92c0.54,0.13,0.87,0.66,0.75,1.2C13.89,29.33,13.48,29.64,13.03,29.64z    "/><path d="M18.97,29.64c-0.45,0-0.86-0.31-0.97-0.77c-0.13-0.54,0.21-1.08,0.75-1.2c4.39-1.03,7.89-4.53,8.92-8.92    c0.13-0.54,0.67-0.87,1.2-0.75c0.54,0.13,0.87,0.66,0.75,1.2c-1.2,5.12-5.29,9.21-10.41,10.41    C19.13,29.64,19.05,29.64,18.97,29.64z"/><path d="M28.64,14.02c-0.45,0-0.86-0.31-0.97-0.77c-1.03-4.39-4.53-7.89-8.92-8.92C18.21,4.2,17.88,3.67,18,3.13    c0.13-0.54,0.66-0.87,1.2-0.75c5.12,1.2,9.21,5.29,10.41,10.41c0.13,0.54-0.21,1.08-0.75,1.2C28.8,14.02,28.72,14.02,28.64,14.02z    "/></g></g><text x="0" y="47" fill="#000000" font-size="5px" font-weight="bold" font-family="'Helvetica Neue', Helvetica, Arial-Unicode, Arial, Sans-serif">Created by Zlatko Najdenovski</text><text x="0" y="52" fill="#000000" font-size="5px" font-weight="bold" font-family="'Helvetica Neue', Helvetica, Arial-Unicode, Arial, Sans-serif">from the Noun Project</text></svg>